<svg xmlns="http://www.w3.org/2000/svg" width="256" height="256"><path fill-opacity=".016" d="M0 128.004v128.004l128.25-.254 128.25-.254.254-127.75L257.008 0H0v128.004m.485.496c0 70.4.119 99.053.265 63.672.146-35.38.146-92.98 0-128C.604 29.153.485 58.1.485 128.5" fill="#1976D2" fill-rule="evenodd"/><path fill-opacity=".091" d="M40.568 1.532C22.006 6.626 6.454 22.334 1.485 41.008c-2.176 8.178-2.176 165.806 0 173.984 5.033 18.912 20.611 34.49 39.523 39.523 4.604 1.225 18.672 1.461 86.992 1.461 89.566 0 86.312.204 98.953-6.199 12.522-6.344 25.349-22.631 27.593-35.038.375-2.069 1.08-4.008 1.567-4.309.504-.312.887-36.368.887-83.548 0-48.264-.373-82.77-.89-82.45-.49.303-1.195-1.133-1.567-3.191-2.241-12.387-15.077-28.679-27.59-35.018C214.29-.191 217.656.016 127.5.101 61.842.163 44.517.449 40.568 1.532M.477 128c0 45.925.123 64.713.273 41.75.149-22.962.149-60.537 0-83.5C.6 63.288.477 82.075.477 128M35 102.5V129h6c9.555 0 10-.824 10-18.5 0-7.975.357-14.5.793-14.5.437 0 7.412 6.671 15.5 14.825L82 125.65v-19.174L66.738 91.238 51.477 76H35v26.5m50 0V129h17v-24.277C102 75.247 102.264 76 91.943 76H85v26.5m32.5-13.565c-7.7 7.055-13.894 13.112-13.765 13.462.13.349 6.655 6.476 14.5 13.615l14.265 12.981 9.372.003c11.149.005 11.7 1.344-6.043-14.688-7.086-6.404-12.759-11.958-12.607-12.344.153-.386 5.903-5.765 12.778-11.952 6.875-6.188 13.159-11.872 13.964-12.631 1.251-1.18.014-1.373-8.5-1.326l-9.964.054-14 12.826m38.057-10.712c-.856 1.222-1.557 3.697-1.557 5.5V87h43.116l4.692 4.433c4.478 4.231 4.692 4.683 4.692 9.907 0 4.61-.485 6.081-3.071 9.317-5.064 6.337-8.237 7.414-20.929 7.108l-11-.265-.281-11.702c-.271-11.261-.38-11.779-2.885-13.75-1.952-1.535-4.072-2.048-8.469-2.048H154v39h23.033c22.331 0 23.178-.073 27.77-2.4 5.978-3.03 13.509-11.01 15.244-16.156 4.19-12.426-2.004-25.79-15.035-32.438-3.583-1.828-5.883-2.006-25.915-2.006-21.584 0-22.012.04-23.54 2.223M65.5 137.039c-10.338 2.119-21.5 7.832-21.5 11.003 0 2.552 1.685 2.525 2.499-.039.921-2.9 8.004-6.683 16.023-8.556 13.906-3.249 23.319-.078 22.105 7.446-.752 4.662-4.084 7.868-10 9.625-6.4 1.901-12.627 1.961-12.627.122 0-.749 1.163-3.074 2.584-5.169 2.135-3.145 2.399-4.212 1.521-6.139-.584-1.283-1.421-2.332-1.859-2.332-1.47 0-16.591 31.659-15.936 33.366.965 2.513 3.397 1.938 4.128-.976.794-3.163 4.125-10.231 5.962-12.651 1.02-1.344 3.204-1.86 9.218-2.178 13.268-.701 19.705-4 21.595-11.069 1.384-5.175 5.069-7.64 14.878-9.952 14.499-3.417 22.909-.915 22.909 6.818 0 6.03-10.515 12.296-19.229 11.457-3.816-.367-3.991-2.451-.601-7.174 1.676-2.336 1.852-3.297.962-5.25-.599-1.315-1.436-2.354-1.861-2.309-1.552.165-16.634 31.53-15.98 33.234.747 1.947 3.709 2.293 3.71.434.001-2.139 5.589-13.173 7.453-14.715.973-.806 3.24-1.339 5.036-1.184 5.022.432 15.636-1.786 19.284-4.03 4.079-2.509 6.226-6.538 6.226-11.682 0-3.196-.595-4.462-3.077-6.55-2.646-2.227-4.023-2.589-9.84-2.589-7.113 0-19.831 2.784-25.054 5.485-3.056 1.581-3.12 1.561-6.426-1.944-3.263-3.461-3.506-3.539-10.721-3.431-4.06.06-9.182.478-11.382.929m78.75 3.398c-7.101 3.413-9.25 4.91-9.25 6.445 0 3.002 1.563 3.373 2.797.665.674-1.479 3.603-3.59 7.683-5.538 6.446-3.076 13.52-4.952 13.52-3.585 0 1.009-12.047 14.912-13.907 16.05-.876.535-5.868 2.822-11.093 5.082-7.38 3.191-9.571 4.592-9.82 6.276-.36 2.447 1.574 2.972 2.458.668.605-1.577 13.167-8.028 14.003-7.192.267.267-1.398 4.231-3.7 8.81-6.192 12.314-7.242 15.742-5.852 19.098.635 1.531 1.924 2.784 2.866 2.784 2.599 0 3.21-1.159 1.335-2.53-2.37-1.733-.693-6.82 5.778-17.525 8.041-13.302 11.552-16.18 17.144-14.055 3.051 1.161 5.264-.502 3.807-2.859-.698-1.13-1.756-1.199-5.443-.356-2.517.576-4.576.823-4.576.549 0-.274 2.496-3.423 5.547-6.997 6.634-7.771 6.717-9.626.444-9.981-3.582-.203-6.363.646-13.741 4.191m34.274 14.717c-1.46 1.735-4.169 6.163-6.021 9.841-4.507 8.948-11.497 13.854-9.234 6.48 1.595-5.197-.11-6.133-4.313-2.368-2.783 2.492-2.93 2.786-.758 1.505 2.873-1.693 4.27-.964 2.751 1.436-1.423 2.249-1.128 5.952.474 5.952.783 0 2.761-1.125 4.395-2.5 3.639-3.062 3.96-3.08 4.362-.25.552 3.886 4.153 3.345 8.768-1.316 4.608-4.654 6.19-4.67 3.452-.034-2.911 4.928-.752 4.781 3.677-.25 4.377-4.973 6.481-5.188 5.556-.567-.817 4.087.979 4.532 3.966.982 3.343-3.973 4.401-3.869 4.401.435 0 2.384.46 3.5 1.444 3.5 1.747 0 7.559-4.923 5.865-4.968-.655-.018-1.469.418-1.809.968-1.355 2.193-3.5.968-3.5-2 0-3.535-1.146-3.745-5.096-.932L194 173.136v-2.509c0-3.437-1.588-4.127-4.743-2.06-1.82 1.193-2.776 1.377-3.039.586-.68-2.04-2.406-1.251-7.321 3.347-5.165 4.831-6.617 5.394-7.561 2.934-.37-.966.574-2.785 2.467-4.75 3.872-4.019 10.197-14.486 10.197-16.875 0-2.776-2.532-2.154-5.476 1.345m-1.55 6.008c-2.191 3.389-3.779 6.366-3.53 6.615.648.649 5.059-4.619 7.558-9.027 3.498-6.17.269-4.236-4.028 2.412M166 159.559c0 .857.45 1.281 1 .941.55-.34 1-1.041 1-1.559s-.45-.941-1-.941-1 .702-1 1.559" fill="#1976D2" fill-rule="evenodd"/><path fill-opacity=".32" d="M42.272 1.437C22.519 6.223 5.183 24.059 1.097 43.799c-1.525 7.368-1.525 161.034 0 168.402 4.197 20.273 22.429 38.505 42.702 42.702 7.368 1.525 161.034 1.525 168.402 0 15.571-3.223 31.172-15.469 38.098-29.903 1.979-4.125 3.906-9.422 4.281-11.772.376-2.35 1.074-4.514 1.551-4.809.48-.297.869-36.781.869-81.537 0-46.038-.378-80.767-.875-80.459-.481.297-1.179-1.364-1.551-3.691-.372-2.328-2.296-7.607-4.275-11.732-6.926-14.434-22.527-26.68-38.098-29.903-8.032-1.663-162.943-1.353-169.929.34M.477 128c0 44.825.123 63.163.273 40.75.15-22.412.15-59.087 0-81.5C.6 64.838.477 83.175.477 128m34.19-52.333c-.367.366-.667 12.516-.667 27V129h6.845C50.817 129 51 128.679 51 111.171c0-7.794.332-14.171.738-14.171.406 0 7.381 6.632 15.5 14.737L82 126.475V105.476L66.738 90.238 51.477 75h-8.072c-4.439 0-8.372.3-8.738.667M85 102v27h17l-.015-24.75c-.009-13.613-.346-25.245-.75-25.85-1.472-2.204-5.225-3.4-10.669-3.4H85v27m33-13.829c-7.975 7.24-14.62 13.45-14.768 13.8-.147.349 6.261 6.59 14.24 13.867l14.508 13.232 9.992-.285 9.992-.285-14.492-13-14.491-13 9.752-9c5.363-4.95 12.005-11.128 14.759-13.728l5.008-4.729-10-.018-10-.018L118 88.171m38.635-11.098c-2.048 1.61-2.635 2.948-2.635 6V87h20.852c19.978 0 20.991.094 24.158 2.25 7.959 5.417 9.729 13.19 4.667 20.494-4.441 6.409-6.843 7.256-20.581 7.256H171v-11.5c0-14.459-.706-15.5-10.5-15.5H154v39h23.54c26.927 0 27.758-.203 36.455-8.899 11.015-11.015 10.418-26.013-1.47-36.972-8.243-7.598-10.223-8.082-33.14-8.107-18.854-.021-20.28.108-22.75 2.051m-87.301 58.932C57.068 137.8 43.5 144.318 43.5 148.417c0 1.054.563 2.104 1.25 2.333.688.229 1.25-.217 1.25-.992 0-3.971 9.709-9.004 20.5-10.627 14.686-2.208 21.18 2.665 16.276 12.213-.521 1.014-2.857 2.689-5.191 3.721C73.101 157.049 62 158.799 62 157.523c0-.414 1.214-2.984 2.699-5.711 2.074-3.811 2.454-5.346 1.641-6.635-.582-.922-1.527-1.677-2.1-1.677-1.511 0-16.24 28.831-16.24 31.789 0 2.38 2.301 4.261 3.959 3.236.428-.264 1.051-2.184 1.384-4.266.332-2.082 1.915-5.852 3.517-8.377l2.912-4.592 8.882-.506c12.764-.728 19.757-4.671 21.253-11.983.828-4.049 5.625-6.998 14.462-8.892 16.35-3.503 25.032.41 21.209 9.559-1.765 4.223-7.013 6.995-15.328 8.095-6.19.819-6.675-.255-3.037-6.728 1.697-3.02 1.963-4.333 1.141-5.636-.59-.934-1.533-1.699-2.096-1.699C105.07 143.5 90 172.884 90 175.202c0 1.988 2.593 4.167 3.956 3.325.574-.355 1.057-1.631 1.072-2.836.016-1.205 1.478-4.891 3.25-8.191l3.222-6 9.087-.64c12.897-.908 19.46-4.607 21.479-12.104.856-3.181.72-4.533-.762-7.565-2.389-4.888-6.541-6.35-15.804-5.563-6.584.56-20.242 4.23-23.451 6.302-1.08.697-1.899.201-3.198-1.935-2.726-4.482-8.325-5.627-19.517-3.99m84.666-.088c-5.157 1.632-19.111 9.208-19.677 10.684-.324.843-.049 2.066.611 2.716.927.914 1.684.523 3.326-1.717 2.865-3.909 19.74-11.407 19.74-8.772 0 .477-2.858 4.198-6.35 8.269-5.956 6.943-6.982 7.673-16.518 11.751-5.592 2.392-10.61 5.177-11.152 6.19-1.492 2.787.766 3.549 3.344 1.129 2.167-2.035 10.248-6.103 12.204-6.145.566-.012-1.347 4.802-4.25 10.699-5.768 11.717-6.367 15.19-3.171 18.386 1.964 1.964 2.219 1.994 3.75.444 1.524-1.544 1.522-1.733-.035-2.617-1.283-.728-1.491-1.603-.883-3.722 2.233-7.787 12.912-24.567 16.97-26.665 2.281-1.179 3.618-1.297 5.707-.503 3.506 1.333 5.384.582 5.384-2.153 0-2.034-.347-2.135-5.52-1.601l-5.521.57 5.566-6.15c4.164-4.602 5.491-6.788 5.27-8.68-.236-2.028-.891-2.567-3.295-2.717-1.65-.103-4.125.169-5.5.604m24.505 19.21c-2.051 2.269-5.024 6.895-6.608 10.279-1.853 3.96-3.946 6.783-5.875 7.922l-2.997 1.77.623-4.549c.343-2.502.249-4.549-.208-4.549-1.405 0-8.44 5.21-8.44 6.251 0 .538 1.109.252 2.465-.636 3.362-2.203 3.417-2.157 2.808 2.385-.471 3.51-.292 4 1.46 4 1.099 0 3.119-.882 4.49-1.96l2.492-1.961 1.121 2.461c1.577 3.46 3.535 3.081 8.707-1.686 2.474-2.281 4.725-3.92 5.002-3.643.277.277-.183 1.073-1.021 1.769-1.579 1.31-2.14 6.02-.717 6.02.445 0 2.235-2.025 3.98-4.5 3.8-5.392 5.213-5.679 5.213-1.059 0 4.829 1.431 5.171 4.546 1.087 2.536-3.324 5.208-3.935 4.054-.927-1.659 4.322 2.74 5.795 6.226 2.085 2.817-2.999 2.79-4.231-.049-2.243-3.071 2.152-3.914 1.951-3.232-.767.359-1.428.024-2.789-.869-3.53-1.17-.971-2.057-.697-4.564 1.413L194 173.178v-3.089c0-2.355-.446-3.089-1.878-3.089-1.032 0-2.453.694-3.157 1.542-.888 1.07-1.599 1.224-2.323.5-1.851-1.851-3.634-1.129-8.539 3.458-2.646 2.475-5.101 4.5-5.457 4.5-1.791 0-.254-4.176 2.741-7.446 4.059-4.431 10.101-15.955 9.163-17.474-1.108-1.792-2.147-1.269-6.045 3.047m-.873 5.505c-2.112 3.021-3.631 5.703-3.375 5.958.522.522 4.777-4.855 6.668-8.426 2.308-4.358.562-3.05-3.293 2.468M165.5 158c-.729 1.18.217 3 1.559 3 .518 0 .941-.9.941-2 0-2.109-1.455-2.691-2.5-1" fill="#1976D2" fill-rule="evenodd"/><path fill-opacity=".168" d="M44 1.56C22.59 6.175 6.04 22.899 1.504 44.5c-2.177 10.372-2.177 156.628 0 167 4.585 21.836 21.16 38.411 42.996 42.996 10.372 2.177 156.628 2.177 167 0 21.161-4.443 38.485-21.245 42.511-41.23.639-3.171 1.573-6.547 2.075-7.502 1.069-2.031 1.276-157.459.209-156.392-.388.388-1.28-2.124-1.981-5.583-4.248-20.948-21.272-37.762-42.814-42.285C201.422-.612 53.847-.562 44 1.56M.476 128c0 43.175.123 60.838.274 39.25.15-21.587.15-56.912 0-78.5C.599 67.163.476 84.825.476 128M34 102v27h7c10.675 0 11-.539 11-18.238V96.524L67.5 112 83 127.476V106.477L67.239 90.738 51.477 75H34v27m50.65-.921c-.369 14.344-.414 26.494-.101 27 .313.507 4.592.921 9.51.921H103v-26.048l14.25 13.015 14.25 13.015 10.25.009c5.637.005 10.25-.176 10.25-.402 0-.227-6.315-6.146-14.032-13.154-7.718-7.008-13.906-13.069-13.75-13.47.155-.4 6.357-6.235 13.782-12.965 7.425-6.73 13.65-12.634 13.833-13.118.184-.485-4.229-.882-9.805-.882h-10.139l-14.195 12.973-14.194 12.972-.5-11.062C102.384 76.255 101.419 75 91.549 75H85.32l-.67 26.079m71.573-24.522c-1.787 1.251-2.223 2.525-2.223 6.5V88l21.25.007c19.132.006 21.535.194 24.109 1.891 9.083 5.988 8.797 17.305-.618 24.486-3.246 2.475-4.056 2.616-15.085 2.616H172v-10.865c0-9.478-.265-11.202-2.073-13.5-1.882-2.394-2.707-2.635-9-2.635H154v39h24.05c26.891 0 26.677.045 34.716-7.335 14.921-13.698 11.143-34.896-7.976-44.752-3.313-1.708-5.994-1.913-25.028-1.913-17.675 0-21.697.266-23.539 1.557M64.5 136.445c-11.67 2.692-21.825 8.305-21.313 11.779.458 3.103 2.651 3.332 3.768.394 3.121-8.207 31.683-13.103 36.28-6.218 1.486 2.225.698 6.526-1.721 9.401-2.466 2.93-5.885 4.199-15.424 5.724l-4.411.705 3.05-5.403c2.847-5.046 2.953-5.587 1.596-8.177-.8-1.526-1.827-2.633-2.283-2.462-.456.172-4.563 7.663-9.126 16.648-6.55 12.897-8.076 16.687-7.247 18 1.948 3.089 4.52 1.969 5.854-2.55.685-2.318 2.409-6.201 3.832-8.629l2.588-4.416 9.328-.408c7.923-.346 10.031-.82 13.995-3.143 3.824-2.241 4.986-3.631 6.426-7.687 1.539-4.332 2.336-5.199 6.374-6.936 9.744-4.192 21.628-5.311 26.984-2.541 2.489 1.287 2.95 2.125 2.95 5.363 0 6.518-5.734 10.256-17.395 11.341-3.904.364-4.163-1.129-1.004-5.784 2.425-3.573 2.531-4.121 1.237-6.426-.778-1.386-1.931-2.52-2.561-2.52-1.038 0-14.845 26.195-16.34 31-.849 2.727.713 5.5 3.098 5.5 1.289 0 1.965-.678 1.965-1.971 0-2.184 4.136-11.613 6.205-14.145.978-1.198 3.65-1.734 10.307-2.071 13.934-.705 20.183-4.927 21.245-14.354.403-3.57.042-4.652-2.494-7.491-2.613-2.924-3.689-3.371-9.047-3.759-6.655-.481-18.703 1.785-25.908 4.873l-4.374 1.875-2.863-3.204c-2.676-2.995-3.342-3.22-10.217-3.448-4.045-.134-10.054.379-13.354 1.14m79.661 3.524c-8.896 4.351-10.161 5.284-10.161 7.5 0 3.202 3.545 3.541 4.531.432.724-2.278 10.507-7.361 16.457-8.55l3.487-.696-4.487 5.292c-2.469 2.91-5.388 6.34-6.488 7.621-1.1 1.281-6.82 4.418-12.711 6.971-10.753 4.659-13.504 7.151-10.834 9.812.869.866 1.57.607 2.849-1.051 1.403-1.819 12.154-7.702 12.809-7.009.108.115-2.039 4.777-4.772 10.361-2.733 5.584-5.01 11.577-5.059 13.318-.105 3.698 3.204 7.633 5.635 6.7 1.725-.662 2.204-3.67.583-3.67-2.776 0 .887-9.233 8.524-21.486 5.134-8.237 7.274-9.718 13.456-9.308 3.663.242 4.512-.032 4.826-1.562.616-2.997-1.067-3.82-5.689-2.782-4.826 1.085-4.835 1.11 2.603-7.069 4.476-4.923 5.076-6.597 3.08-8.593-2.458-2.458-8.337-1.269-18.639 3.769m33.869 14.781c-1.713 2.063-4.521 6.59-6.239 10.06-2.801 5.657-5.872 9.19-7.989 9.19-.414 0-.295-1.203.264-2.672 2.176-5.724-.772-6.895-6.104-2.426-3.877 3.251-3.549 5.184.436 2.573l2.571-1.685-1.087 3.118c-2.1 6.024.87 7.93 5.778 3.708l2.771-2.384 1.06 2.125c1.786 3.583 4.405 3.161 9.124-1.47 4.569-4.484 5.548-4.592 2.736-.3-1.198 1.829-1.348 2.816-.549 3.615.8.8 2.331-.238 5.609-3.801l4.51-4.901.039 4.25c.048 5.152 1.399 5.413 5.177 1l2.782-3.25.04 2.628c.067 4.313 2.422 5.449 6.006 2.897 1.669-1.189 3.035-2.806 3.035-3.593 0-1.875-.925-1.809-3.171.223-1.736 1.57-1.829 1.492-1.829-1.531 0-4.176-2.372-5.063-5.551-2.076-1.797 1.688-2.449 1.906-2.449.817 0-.815-.62-2.331-1.379-3.368-1.306-1.786-1.514-1.797-3.948-.203-1.566 1.027-2.807 1.298-3.18.695-1.08-1.747-2.478-1.083-7.39 3.511-2.646 2.475-5.326 4.5-5.957 4.5-2.185 0-1.128-2.694 2.604-6.631 4.429-4.674 9.72-14.701 8.894-16.855-.966-2.518-3.328-1.719-6.614 2.236m-.156 6c-1.774 2.615-2.357 3.993-1.298 3.067 2.013-1.76 5.909-7.817 5.029-7.817-.28 0-1.959 2.137-3.731 4.75m-12.186-3.104c-1.374 1.374-.662 3.496 1.062 3.164.963-.186 1.75-.969 1.75-1.74 0-1.579-1.764-2.472-2.812-1.424" fill="#1976D2" fill-rule="evenodd"/></svg>