<svg id="图层_1" data-name="图层 1" xmlns="http://www.w3.org/2000/svg" viewBox="0 0 1024 1024"><defs><style>.cls-1{fill:#fe6c07;}.cls-2{fill:#fff;}</style></defs><rect class="cls-1" width="1024" height="1024" rx="220"/><path class="cls-2" d="M615.76,360H659a25.73,25.73,0,0,1,25.73,25.73v82.8h93.18c10.66,0,49-28.24,49-63.19s-38.35-56.17-49-56.17H615.76V327.79A26.2,26.2,0,0,1,642,301.6H798.09c13.16,0,89.6,36.94,89.6,107.3s-76.45,107.3-89.6,107.3H615.76Z"/><path class="cls-2" d="M383.15,301.58H339.76V434.72l-.11-.11v81.56h69v-189A25.53,25.53,0,0,0,383.15,301.58Z"/><polygon class="cls-2" points="609.75 301.58 528.54 301.58 410.39 408.88 528.54 516.18 609.75 516.18 491.59 408.88 609.75 301.58"/><path class="cls-2" d="M329.21,424.14,206.94,301.58H136.76V516.17H179.7a26,26,0,0,0,26-26V383L329.2,506.56V424.14Z"/><path class="cls-2" d="M173,593.84s.83,8.53,5.63,9.52,6.31-2,6.91-9.52c0,0,7.23-25.44,77.37-37.46,61.37-10.52,72.84,12.11,74.75,17.94a11.57,11.57,0,0,1,.5,2.53c.63,6.47,1.59,37-34.86,47.09-40.85,11.25-56.22,7.75-56.22,7.75s11.33-28.8,16.42-33.68c0,0,13.81-2.49-3.78-25.89,0,0-9.32-9-12,11.44L198.6,679.8s-15.23,21.88-3.1,32.22c0,0,16.47,12.41,15.21-11.61,0,0,14.13-42.81,31.42-57.45,0,0,114.37,14.54,119.22-57.28,0,0,8.36-48.93-60-43.9,0,0-68.67,1.72-115.62,35.74C185.76,577.53,171.52,583.56,173,593.84Z"/><path class="cls-2" d="M341.66,593.84s.83,8.53,5.63,9.52,6.31-2,6.91-9.52c0,0,7.23-25.44,77.37-37.46,52.74-9,68.62,6.4,73.26,14.62a17.23,17.23,0,0,1,2.12,7.79c.41,9.21-1.41,35.89-35,45.14-24.21,6.67-39.47,8.15-47.89,8.26a5.62,5.62,0,0,1-5.37-7.77c3.72-8.87,10-23.12,13.46-26.42,0,0,13.81-2.49-3.78-25.89,0,0-9.32-9-12,11.44L367.23,679.8S352,701.68,364.13,712c0,0,16.47,12.41,15.21-11.61,0,0,13.1-39.68,29.5-55.7a5.46,5.46,0,0,1,4.43-1.48c16.81,1.62,112.28,7.94,116.7-57.55,0,0,8.36-48.93-60-43.9,0,0-68.67,1.72-115.62,35.74C354.39,577.53,340.15,583.56,341.66,593.84Z"/><path class="cls-2" d="M544.73,599.87s-7,.35-7.21-8.06.78-10.51,9.08-15.76c0,0,35.76-18.5,56.36-27.54s42.86-10.15,46.81-4.4.66.73.66.73,9.73,9.18-5.32,25.46c0,0-30.3,32.36-37.78,42.92l-.3.43s42.6-11.94,43.4-3.15c0,0,3.45,9.73-2.18,13.76s-5.62,5.44-19.4-1.09S595.61,629,585,648s-36.35,54.2-44.81,82.94c0,0-4.41,13.12-1.61,16.72,0,0,2.14,4.71,6.71,0,0,0,7.09,3.17-1.89,12.14s-29-8.07-22.44-30.81c0,0,18.83-53.74,43.14-88a2,2,0,0,0-2.22-3.1c-11.45,3.76-37,12.93-52,24.5a2.25,2.25,0,0,0-.62.75c-1.39,2.65-8.75,15.85-13.78,7.06-5.57-9.74,6.25-18.75,9.55-19.56s53.39-24.85,71.64-30.31a1.07,1.07,0,0,0,.41-.18c1.16-.77,8.44-5.86,18.67-18,0,0,30-35.79,38.18-46.16,0,0,3.75-5.2-11.54-1.88,0,0-48.17,12.49-68.57,32.74a2,2,0,0,0-.58,1C552.52,590.63,549.53,602.08,544.73,599.87Z"/><ellipse class="cls-2" cx="667.19" cy="636.31" rx="5.83" ry="7.53"/><path class="cls-2" d="M623,684s13.75-11.64,21.87-16.34c0,0,9.2-8.35,12.51,1.67,0,0,2.43,6.55-6,26.24,0,0-4,7,1.69,4.06,0,0,13.95-6.81,20.49-13.23,0,0,9.21-7,2.83,5.64,0,0-11.42,16.64-27.88,21.27,0,0-13.89,4.65-9.5-15.36,0,0,3-10.87,5.42-15.76,0,0,4-6.8-5.33-1.47,0,0-10.22,5.26-14.3,10.21C624.81,690.9,618.09,692.57,623,684Z"/><path class="cls-2" d="M826.78,689.42s-7.72,9.71-14.86,10.84c0,0-4.1.78-1.68-8.18,0,0,3-16.22-4.92-18,0,0-5.9-4.53-26.53,17.07,0,0-3.24,3.2-2-3.36q.06-.28.12-.6c1.56-7.35-.7-21.84-8.3-20.09,0,0-8.41-.39-23.06,15.15,0,0,2.47-11.71-6.31-11.08,0,0-9.13-2.59-35.35,28.39,0,0-12.52,12.4-15.36,6.1s-1.65-16.32,1-18.71c0,0,4.27,2.83,12.43-7.81,0,0,28.6-37.13,36.49-63.73,0,0,2-11.64-7.81-9.88,0,0-15.69,1.35-43.93,57.2,0,0-16.46,31.57-6.29,46.78,0,0,8.12,11.59,21.2,1.83s24.69-29.11,32.9-28.73c0,0,4.91.38-6.75,13.14,0,0-11.34,13.49-1.27,19.5,0,0,4.52,3,9.45-9.26,0,0,20.15-28.7,27.63-27.58,0,0,4.7-2.65,1.13,18,0,0-3.26,13,5.72,13.93,0,0,3.63.83,5.8-3.16a7.88,7.88,0,0,0,.47-1c2.07-5.13,15.77-22,20.18-21.22,0,0,3.08-1,.75,14.85,0,0-1,14.4,10.69,13.65,0,0,3.62,2.33,23.41-19.18C831.77,694.31,833,686.12,826.78,689.42ZM722.7,625.71c7.9-10.78,6.88-4.57,6.88-4.57C723.52,640.89,693,673.89,693,673.89,697.53,655.68,722.7,625.71,722.7,625.71Z"/></svg>